inDegrees=no
num_controls=7
num_derivatives=13
num_iterations=90
num_multipliers=7
num_parameters=0
num_slacks=7
num_states=26
objective=0.425747
objective_accelerations=0.060561
objective_balance=0.001421
objective_effort=0.014894
objective_height=0.342990
objective_ligament=0.005882
solver_duration=1314.430451
status=Solve_Succeeded
success=true
DataType=double
version=3
OpenSimVersion=4.5
endheader
time	/jointset/ground_pelvis/pelvis_tilt/value	/jointset/ground_pelvis/pelvis_tx/value	/jointset/ground_pelvis/pelvis_ty/value	/jointset/hip_l/hip_flexion_l/value	/jointset/hip_l/hip_adduction_l/value	/jointset/hip_l/hip_rotation_l/value	/jointset/back/lumbar_extension/value	/jointset/patellofemoral_l/patellar_flexion_l/value	/jointset/knee_l/knee_flexion_l/value	/jointset/knee_l/knee_adduction_l/value	/jointset/knee_l/knee_rotation_l/value	/jointset/ankle_l/ankle_angle_l/value	/jointset/subtalar_l/subtalar_angle_l/value	/jointset/ground_pelvis/pelvis_tilt/speed	/jointset/ground_pelvis/pelvis_tx/speed	/jointset/ground_pelvis/pelvis_ty/speed	/jointset/hip_l/hip_flexion_l/speed	/jointset/hip_l/hip_adduction_l/speed	/jointset/hip_l/hip_rotation_l/speed	/jointset/back/lumbar_extension/speed	/jointset/patellofemoral_l/patellar_flexion_l/speed	/jointset/knee_l/knee_flexion_l/speed	/jointset/knee_l/knee_adduction_l/speed	/jointset/knee_l/knee_rotation_l/speed	/jointset/ankle_l/ankle_angle_l/speed	/jointset/subtalar_l/subtalar_angle_l/speed	/forceset/tau_hip_flexion_l	/forceset/tau_hip_adduction_l	/forceset/tau_hip_rotation_l	/forceset/tau_knee_flexion_l	/forceset/tau_ankle_angle_l	/forceset/tau_subtalar_angle_l	/forceset/tau_lumbar_extension	lambda_cid13_p0	lambda_cid13_p1	lambda_cid13_p2	lambda_cid13_p3	lambda_cid13_p4	lambda_cid13_p5	lambda_cid14_p0	/jointset/ground_pelvis/pelvis_tilt/accel	/jointset/ground_pelvis/pelvis_tx/accel	/jointset/ground_pelvis/pelvis_ty/accel	/jointset/hip_l/hip_flexion_l/accel	/jointset/hip_l/hip_adduction_l/accel	/jointset/hip_l/hip_rotation_l/accel	/jointset/back/lumbar_extension/accel	/jointset/patellofemoral_l/patellar_flexion_l/accel	/jointset/knee_l/knee_flexion_l/accel	/jointset/knee_l/knee_adduction_l/accel	/jointset/knee_l/knee_rotation_l/accel	/jointset/ankle_l/ankle_angle_l/accel	/jointset/subtalar_l/subtalar_angle_l/accel	gamma_cid13_p0	gamma_cid13_p1	gamma_cid13_p2	gamma_cid13_p3	gamma_cid13_p4	gamma_cid13_p5	gamma_cid14_p0
1.5	-0.3435026119072351	0.04224505528311884	0.7858982277120716	1.034988264461264	-0.3516423012353376	-0.05564170453212885	-0.330529289268001	0.8398464022378963	0.8398464022379049	-0.01349177312771298	-0.1724131184381646	0.2704149816649553	0.1617180888707905	0.4929176870206551	0.2726093767797583	0.524840378392378	-2.377986212856483	0.00371082292596919	-0.5933063476892052	0.6125921506925458	-2.265752256455015	-2.265752256454939	-0.3217642141221733	0.03355069447230625	-0.554185739421122	-0.2170600899802373	-0.1255001320304372	0.03399288298978183	-0.003765813708394583	-0.1494052236735587	-0.006858048172359139	0.01563805975700777	0.1222696074874294	-25.09938600488909	-2.819849836233491	0.6516743048167379	-9.268269982885132	-428.2426932832816	-59.50247687328486	-9.230446142494333	0.5409217946761209	0.735962345552996	-0.7923482806306873	-1.373434669536028	0.3030181420144269	-0.5392028658570451	1.615877267166002	-1.188658633385247	-1.188658633385207	-0.1254040285387901	0.3029679414462023	-0.4170957946480233	0.4595622877662107	7.041662396390477e-07	-8.78209648345115e-07	-7.984821770294401e-06	-5.076180450559998e-07	1.466938220794292e-06	1.28546365103662e-06	8.676149983770004e-07
1.51	-0.3385464946103729	0.04500745536949358	0.7911059410268916	1.01114158008812	-0.3515926216741206	-0.06159301389837339	-0.3243243225828193	0.817131622316623	0.8171316223166223	-0.01672615941560012	-0.172059963414293	0.2648518855138455	0.1595666844562751	0.4982204120985225	0.2798144305598869	0.5165831913503097	-2.391004313918478	0.006232562361866544	-0.5968796621521459	0.628305352952541	-2.276891140320576	-2.276891140320568	-0.325086118885611	0.03712584356863467	-0.5583608976126789	-0.2131913234558487	-0.1213228390316358	0.03409612791251538	-0.00309816741349104	-0.1453568234579213	-0.007655469331160548	0.01411211121779467	0.1186754908158256	-25.29305038881741	-2.288171434704592	0.7553204517531602	-8.653739856659227	-424.7972128482335	-58.3310420976649	-10.17573488521289	0.5122113919352307	0.7042434570089056	-0.8599555839709919	-1.213943950034163	0.229189837993187	-0.2540953684391531	1.53466669671306	-1.029786411908506	-1.029786411918825	-0.4319373415628176	0.3901016144756979	-0.4068437392930674	0.3560655595175748	7.143545119078152e-07	-9.209470735277056e-07	-8.063921364663501e-06	-5.090151562094981e-07	1.52939921463359e-06	1.512952820844113e-06	8.601823198962538e-07
1.52	-0.3335398973572142	0.04784019930622283	0.7962275721376957	0.9871751254792546	-0.3515172371198212	-0.06757759633563218	-0.3179650988767784	0.7943147969269371	0.7943147969269337	-0.01999303547937542	-0.1716699942553134	0.2592492141992434	0.157455074051952	0.5030136782801187	0.2866781468506601	0.5076239375891918	-2.401940260000595	0.008851821542395229	-0.5999609618921495	0.6434435548644079	-2.286161350136818	-2.28616135013688	-0.3282621693017104	0.04091352149494575	-0.5621007721195781	-0.2091012879417647	-0.1171455460328299	0.03419937283525314	-0.002430521118534346	-0.1413084232422839	-0.008452890489961892	0.01258616267858621	0.1150813741442255	-25.47960713716951	-1.762034822043523	0.864763984068779	-8.109835013266835	-421.2804035235501	-57.28548614455352	-11.11849599010838	0.4390300154218525	0.6676948476819107	-0.9327616244406458	-0.9570036735606914	0.3225220909406896	-0.4407999212696284	1.500877197540327	-0.8149238235215602	-0.8149238235215885	-0.09623315907112341	0.3454737074427347	-0.3300390577164909	0.5038160857052639	7.020277805627947e-07	-5.042044352180644e-07	-7.86258763825042e-06	-4.41623294264199e-07	1.564509323703096e-06	1.863238019600914e-06	8.622668831481938e-07
1.53	-0.3284879294597274	0.05074013722465157	0.8012562542192463	0.9631091519914916	-0.3514153939462536	-0.07359287631365899	-0.3114577814041024	0.7714144987607335	0.7714144987607391	-0.02328960525361926	-0.1712427070251894	0.253611783402474	0.1553854378012775	0.5072667801245241	0.2932767029700439	0.4980039514464761	-2.410913988047062	0.01151681211567246	-0.6030014867988386	0.6579129388068303	-2.293568891093407	-2.293568891093449	-0.3310409493117059	0.04459367682939037	-0.5652615740887481	-0.2047886841480487	-0.1120972134115797	0.03194303295406032	-0.001570229010186077	-0.1393668144773673	-0.006868016878539646	0.01192968759780076	0.11096733717164	-24.83675921157257	-1.731609693501412	1.022250867605234	-8.359501099011124	-418.1121478512214	-57.62742810148575	-12.05691688817272	0.401545441147966	0.6509807270337213	-0.9925814407743245	-0.8163952887296382	0.2394820111058438	-0.2206920601854869	1.403918862979776	-0.6544366287345977	-0.6544366287316599	-0.3672038539053336	0.3854573320019899	-0.2904712996841194	0.4012774918800972	6.65778857878125e-07	4.007357705520679e-07	-7.363293508506274e-06	-3.011431484014287e-07	1.570559117704697e-06	2.343993999116354e-06	8.744635157411135e-07
1.54	-0.3233968115093576	0.05370506965086756	0.8061855435730523	0.9389636736395561	-0.3512867019728363	-0.07963556419771441	-0.3048089801179247	0.74844997170556	0.7484499717055795	-0.02661366351435043	-0.1707773840646122	0.2479464704793796	0.1533601865816752	0.5108436888568536	0.2996770484081097	0.4877453920402662	-2.417841232835121	0.01422158151233174	-0.6054425430982051	0.6717403175647162	-2.299007127930278	-2.299007127930301	-0.3337598665993628	0.04852066758610255	-0.5676771973845927	-0.2002242817273191	-0.1070488807903199	0.02968669307287897	-0.0007099369018222859	-0.1374252057124483	-0.005283143267114626	0.01127321251703079	0.1068533001990613	-24.18723373161448	-1.701108998485941	1.178308476374177	-8.666844373254396	-414.8364498346047	-58.07431951745548	-12.99009310966202	0.30379139300666	0.6280527114183091	-1.06047627713949	-0.5477070218787549	0.3304778556170981	-0.3209061998051304	1.372476160632998	-0.4210629995781736	-0.4210629995781715	-0.08426061460339379	0.3948407918962479	-0.181003323051339	0.5541758111079766	6.337660050406115e-07	9.819289258401744e-07	-6.973179725550801e-06	-2.029104406586981e-07	1.57448861711856e-06	2.688515834555288e-06	8.708414807994683e-07
1.55	-0.3182730566002605	0.05673269780706961	0.8110091388563181	0.9147592559375241	-0.3511307709749015	-0.08570052107779573	-0.2980252501756056	0.725440944265579	0.7254409442655588	-0.02996386655995719	-0.1702719823350047	0.2422604211904446	0.1513817399243347	0.5138240207754698	0.3057840200342111	0.4768748240712321	-2.422688555143916	0.01695565664078331	-0.607455011940359	0.6848767545385618	-2.302451824509172	-2.302451824509185	-0.3362729229829843	0.05258777781957252	-0.5694355803408206	-0.1954527338151102	-0.1028748180496142	0.0285989914001826	0.0002245583666197339	-0.1341120443634629	-0.005960703522697658	0.009839035300952521	0.1032618613159577	-24.36511027486707	-1.211161093485352	1.287591469738864	-8.108654694457417	-411.9216826716319	-57.51476249363824	-13.91791545917365	0.2827220638916018	0.5923098039642715	-1.114857777828702	-0.4000929890537227	0.2444052786361351	-0.1264203999405908	1.264890011661772	-0.2543600245627286	-0.2543600245612158	-0.3337426367005364	0.4156800830804477	-0.1586288027267507	0.4410654583638925	6.066338413748215e-07	1.190109175138141e-06	-6.708860689982269e-06	-1.533541290107935e-07	1.575975168420466e-06	2.876072243123473e-06	8.489935897853906e-07
1.56	-0.3131219847774575	0.05981945376268433	0.8157211263156849	0.8905169953816687	-0.3509475926382465	-0.09178260328100357	-0.291114023354368	0.7024078324522955	0.702407832452258	-0.03333898306665443	-0.1697253027142794	0.2365597134677836	0.1494514929815335	0.5163070715981896	0.3115026082906425	0.4654238272604591	-2.425409803599662	0.01967104925631452	-0.6088676077233171	0.6972396933484654	-2.303824002588777	-2.30382400258878	-0.3387425588249669	0.05677624581336735	-0.5706088841297776	-0.1905843388194399	-0.09870075530891047	0.02751128972747969	0.001159053635227314	-0.1307988830144801	-0.006638263778284406	0.008404858084861933	0.09967042243285372	-24.53507662416332	-0.7241800138822088	1.399158388379422	-7.617309553492989	-408.913731651991	-57.06302725999674	-14.84124696602796	0.2043351738273519	0.5503760374843125	-1.176562045487249	-0.1224922512689933	0.3267413530330136	-0.2009315879659443	1.217776527844602	-0.006559299720448595	-0.006559299720448738	-0.07557650627560786	0.4191123439612257	-0.06398748959709306	0.5735452278002469	4.994565685363821e-07	1.801292493662579e-06	-5.65083014232961e-06	-1.48600870382312e-08	1.390183930349663e-06	2.874605956479039e-06	7.793234548907831e-07
1.57	-0.3079489144353318	0.06296097489049703	0.820315758438859	0.8662592770807036	-0.3507364229814379	-0.09787964285425083	-0.284083011638187	0.679371575840602	0.6793715758405718	-0.03673445080051661	-0.1691380529873029	0.2308499511815234	0.1475715723973953	0.5182271069150592	0.3166903961138842	0.4534182774954159	-2.425745170613734	0.02253314703462245	-0.6102655012018398	0.7087892234233049	-2.303104856026214	-2.303104856026216	-0.340486829567688	0.06081335758447427	-0.5713185682161918	-0.1854467277476628	-0.09527296358165875	0.0270120325337685	0.002161550625258859	-0.1260817206616919	-0.01001425055356312	0.006726653133870925	0.0964698635520089	-25.6308888783287	-0.04129017244159289	1.561936901270865	-6.114649400615818	-406.2766548809378	-56.18421440469766	-15.75720812533403	0.1738803285699483	0.4863726917633084	-1.225053715554447	0.06927921960427216	0.261469354551808	-0.06742283932177928	1.097527277618038	0.1594061237435264	0.1594061237436825	-0.2437935630833937	0.4165496689277471	-0.0705778131903083	0.4765549494539389	2.922229092321319e-07	2.9162296487201e-06	-3.600660204571802e-06	2.34806117840152e-07	9.702954555629792e-07	2.636861300818831e-06	6.498755151455139e-07
1.58	-0.3027590352164479	0.06615105240394593	0.8247878346096742	0.8420098727388138	-0.3504975272739826	-0.1039823022845864	-0.2769417074151948	0.6563521615924381	0.6563521615924055	-0.04015134948279122	-0.168506324327557	0.2251338682653937	0.1457415651044922	0.5196688469500561	0.3212138854178896	0.4409126367887081	-2.423747011784586	0.02521625938581267	-0.609991579141415	0.7192981947107217	-2.300455529883696	-2.300455529883697	-0.3430287485029285	0.06567203236527426	-0.5718730101036754	-0.1806016805723851	-0.09184517185439577	0.02651277534007168	0.003164047615212355	-0.1213645583088997	-0.01339023732883689	0.005048448182901537	0.09326930467117096	-26.72482812627547	0.6404320038469444	1.725864005475567	-4.651187874934101	-403.6488161044773	-55.37012003508384	-16.65444182734179	0.1086761174527792	0.4175163336370739	-1.276580233820134	0.3442129173748806	0.290944267609473	0.1334315198235463	1.009664770360075	0.3794766162705656	0.3794766162705469	-0.2351061447794921	0.5834249458998413	-0.03293904981100506	0.51503244850038	2.25975206186401e-08	4.674716273051045e-06	-9.325059940912597e-07	5.756977058549842e-07	4.148272224573845e-07	2.284441788781277e-06	5.13837673736701e-07
1.59	-0.2975575335353821	0.06938354482334026	0.8291324466549783	0.8177926582204083	-0.350230695164907	-0.1100865103186229	-0.2696999373079578	0.6333702090978823	0.633370209097865	-0.0435866343984851	-0.1678302501223436	0.2194149781539965	0.1439620131021363	0.5205359320257699	0.3252248515306307	0.4279402828873874	-2.41933306112771	0.02814202268002473	-0.6107269105478399	0.7289175841922814	-2.295550934450568	-2.295550934450579	-0.3440338844082302	0.06955655436960002	-0.5717636251488192	-0.1752849408411448	-0.0874510962570494	0.02437998248361303	0.003985435913082888	-0.1192163143124948	-0.01290047366795859	0.00383646926186223	0.08960627018851404	-26.53733069782681	1.002813062750504	1.817898497292888	-4.563389291820939	-401.4123461966786	-55.47840673957742	-17.52659658262005	0.06135593114794224	0.3841881778111356	-1.318139443185976	0.5443472226450963	0.2904254365438609	-0.1585114917424389	0.9173396553738032	0.6034997027973208	0.6034997027958203	-0.0324026444356647	0.2939089253973841	0.05439064686597212	0.541613325851708	-3.31702357771675e-07	7.306591462824447e-06	2.57434115794152e-06	1.040395170983562e-06	-3.246421112238639e-07	1.776392114517331e-06	3.688563943559361e-07
